<?xml version="1.0" encoding="utf-8"?>
<!-- Svg Vector Icons : http://www.onlinewebfonts.com/icon -->
<!DOCTYPE svg PUBLIC "-//W3C//DTD SVG 1.1//EN" "http://www.w3.org/Graphics/SVG/1.1/DTD/svg11.dtd">
<svg version="1.1" xmlns="http://www.w3.org/2000/svg" xmlns:xlink="http://www.w3.org/1999/xlink" x="0px" y="0px" viewBox="0 0 1000 1000" enable-background="new 0 0 1000 1000" xml:space="preserve">
<metadata> Svg Vector Icons : http://www.onlinewebfonts.com/icon </metadata>
<g><path d="M500,10C229.8,10,10,229.8,10,500s219.8,490,490,490c270.2,0,490-219.8,490-490S770.2,10,500,10z M500,957.3C247.8,957.3,42.7,752.2,42.7,500C42.7,247.8,247.8,42.7,500,42.7S957.3,247.8,957.3,500C957.3,752.2,752.2,957.3,500,957.3z M607,225h-81.5c-103.8-1-117.1,63.2-117.1,132.8v50.6h-45.8c-9-1-16.3,6.3-15.3,15.3v91.7c-1.1,9,6.3,16.3,15.3,15.3h45.8v229.2c-0.9,9,6.4,16.3,15.4,15.3h93.4c9,1,16.3-6.3,13.4-15.3l0.1-229.2H607c9,1,16.3-6.3,15.3-15.3v-91.7c1.1-9-6.3-16.3-15.3-15.3h-76.5l0.1-45.8c3-19.5,3-16.3,21.1-15.3h54.7c4.2-0.9,8.8-0.4,11.9-3.5c3.2-3.1,5-7.3,3.9-11.8v-91.7C623.3,231.2,616,223.9,607,225L607,225z M590.6,314.9l-38.3-1.5c-47.5,0-51.4,25.8-51.4,52.1l-0.1,57.9c0,4.3,1.7,8.5,4.8,11.6c3.1,3.1,7.2,4.8,11.6,4.8h74.6v59h-74.6c-9,0-16.3,7.3-16.3,16.3l0,229.2h-61.8V515.3c0-9-6.1-16.3-15.2-16.3h-45.9v-59h45.9c4.3,0,8.5-1.7,11.6-4.8c3.1-3.1,3.6-7.2,3.6-11.6v-65.9c0-68.5,13.8-101.1,86.5-101.1h65.2L590.6,314.9L590.6,314.9z"/></g>
</svg>