<?xml version="1.0" encoding="utf-8"?>
<!-- Svg Vector Icons : http://www.onlinewebfonts.com/icon -->
<!DOCTYPE svg PUBLIC "-//W3C//DTD SVG 1.1//EN" "http://www.w3.org/Graphics/SVG/1.1/DTD/svg11.dtd">
<svg version="1.1" xmlns="http://www.w3.org/2000/svg" xmlns:xlink="http://www.w3.org/1999/xlink" x="0px" y="0px" viewBox="0 0 1000 1000" enable-background="new 0 0 1000 1000" xml:space="preserve" fill="#FFF">
<metadata> Svg Vector Icons : http://www.onlinewebfonts.com/icon </metadata>
<g><g transform="translate(0.000000,511.000000) scale(0.100000,-0.100000)"><path d="M4374.6,4983.7c-865.8-125.2-1608.5-431.9-2315.8-955.5c-254.5-189.8-784.4-719.8-974.3-974.3c-546.6-736.5-863.7-1533.4-966-2418C81,325,103.9-415.6,156.1-701.5c93.9-492.4,227.4-895,444.4-1335.2c273.3-546.6,557-932.6,1003.5-1366.5c721.9-701,1591.8-1147.5,2582.8-1326.9c310.9-56.3,984.7-77.2,1318.6-39.6c1099.5,118.9,2082.1,582.1,2889.5,1362.4c632.1,611.3,1059.8,1308.1,1310.2,2132.2c156.5,517.4,208.6,934.7,192,1539.7c-18.8,757.3-171.1,1358.2-517.4,2038.3c-260.8,515.3-550.8,905.5-982.6,1324.8c-719.8,701-1568.9,1137-2582.9,1329C5524.1,5010.8,4672.9,5027.5,4374.6,4983.7z M5697.3,4547.7C7116,4324.4,8313.5,3473.2,8970.7,2219.3c319.2-607.1,479.8-1226.7,509.1-1940.3C9582-2351.7,7464.4-4469.3,4833.6-4367.1c-542.4,23-1026.5,118.9-1481.3,298.3C1848.1-3474.2,823.7-2191.1,562.9-574.2c-50.1,306.7-50.1,1051.5,0,1364.4c254.5,1621.1,1287.3,2914.6,2797.7,3505c365.1,144,788.6,242,1253.9,290C4787.7,4604,5499.1,4579,5697.3,4547.7z"/><path d="M2678.4,2855.7c-189.9-70.9-379.7-273.3-431.9-459c-16.7-60.5-20.9-721.9-16.7-2326.2l6.3-2242.8l48-100.1c64.7-127.3,204.5-267,331.7-331.7l100.1-48h2284.5H7285l100.2,48c127.3,64.7,267,204.5,331.7,331.7l48,100.1V112.2v2284.5l-48,100.1c-64.7,127.3-204.5,267.1-331.7,331.7l-100.2,48l-2263.6,4.2C3131.2,2882.8,2745.2,2878.6,2678.4,2855.7z M7243.2,2440.5c108.5-45.9,116.8-108.5,110.6-721.9l-6.3-532H5000.5H2653.4l-6.3,532c-6.3,605,4.2,676,106.4,719.8C2853.7,2482.2,7138.9,2484.3,7243.2,2440.5z M3957.3,746.4c0-6.3-37.5-56.3-85.5-108.5c-315-358.8-433.9-842.9-319.2-1299.8c160.6-646.7,792.8-1145.4,1447.9-1145.4c673.9,0,1306,519.5,1462.5,1199.6c33.4,144,33.4,456.9,0,594.6c-58.4,239.9-227.4,557.1-365.1,686.4c-29.2,29.2-54.2,58.4-54.2,68.8s294.2,14.6,653,12.5l650.9-6.3l6.3-1387.4c4.2-970.1,0-1412.4-16.7-1466.7c-43.8-148.1,85.5-139.8-2332.5-139.8c-1562.6,0-2186.4,6.3-2236.5,23c-127.3,45.9-125.2,16.7-125.2,1558.4c0,767.8,6.3,1402,14.6,1408.3C2674.3,763.1,3957.3,763.1,3957.3,746.4z M5336.4,704.7c438.1-129.4,728.1-532,728.1-1016c0-298.3-91.8-542.4-275.4-736.5c-221.1-233.7-448.6-327.5-788.6-327.5c-340.1,0-567.5,93.9-788.6,327.5c-183.6,194-275.4,436-275.4,728.1c0,477.8,277.5,880.4,703.1,1016C4798.1,748.5,5173.6,752.7,5336.4,704.7z"/><path d="M6152.1,1979.4c-81.4-68.8-100.2-154.4-56.4-246.2c48-104.3,102.2-118.9,419.3-118.9h283.8l60.5,60.5c68.9,68.8,79.3,156.5,31.3,250.4c-48,89.7-112.6,106.4-408.9,106.4C6225.2,2031.6,6210.5,2029.5,6152.1,1979.4z"/></g></g>
</svg>